<svg version="1.1" width="1" height="1" xmlns="http://www.w3.org/2000/svg" xmlns:xlink="http://www.w3.org/1999/xlink">
<defs>
<path id="0" d="M0.6 0.988889H0.4V0.944444A0.425380 0.425380 0 0 1 0.3 0.155556L0.344444 0.255556A0.316322 0.316322 0 1 0 0.655556 0.255556L0.7 0.155556A0.425380 0.425380 0 0 1 0.6 0.944444ZM0.55 0.444444H0.611111A0.055556 0.055556 0 0 1 0.666667 0.5V0.561111A0.055556 0.055556 0 0 1 0.611111 0.616667H0.383333A0.055556 0.055556 0 0 1 0.333333 0.561111V0.5A0.055556 0.055556 0 0 1 0.388888 0.444444H0.45V0.155556A0.277778 0.105556 0 0 0 0.222222 0.1V0.033333H0.777778V0.1A0.277778 0.105556 0 0 0 0.55 0.155556V0.44444Z"/>
</defs>
<g transform="matrix(1 0 0 -1 0 1)">
<use xlink:href="#0" style="fill:#000000"/>
</g>
</svg>